<svg xmlns="http://www.w3.org/2000/svg" viewBox="0 0 200 200">
  <!-- Background Circle -->
  <circle cx="100" cy="100" r="95" fill="#4a6cf7" />
  <circle cx="100" cy="100" r="85" fill="#6c8cff" />
  
  <!-- Music Note -->
  <path d="M80 60v64.5c-3.5-2.5-8-4-13-4-11 0-20 7.2-20 16s9 16 20 16 20-7.2 20-16V96l60-16V88c-3.5-2.5-8-4-13-4-11 0-20 7.2-20 16s9 16 20 16 20-7.2 20-16V60l-75 20V60h1z" fill="white" />
  
  <!-- Stars -->
  <path d="M40 40l3.5 7 8 1-6 5.5 1.5 8-7-3.5-7 3.5 1.5-8-6-5.5 8-1z" fill="#ffdd00" />
  <path d="M160 40l3.5 7 8 1-6 5.5 1.5 8-7-3.5-7 3.5 1.5-8-6-5.5 8-1z" fill="#ffdd00" />
  <path d="M100 170l3.5 7 8 1-6 5.5 1.5 8-7-3.5-7 3.5 1.5-8-6-5.5 8-1z" fill="#ffdd00" />
</svg> 